HIERARCHY
ROOT hip
{
  OFFSET 0 0 0
  CHANNELS 6 Xposition Yposition Zposition Zrotation Yrotation Xrotation
  JOINT abdomen
  {
    OFFSET 0 20.6881 -0.73152
    CHANNELS 3 Zrotation Xrotation Yrotation
    JOINT chest
    {
      OFFSET 0 11.7043 -0.48768
      CHANNELS 3 Zrotation Xrotation Yrotation
      JOINT neck
      {
        OFFSET 0 22.1894 -2.19456
        CHANNELS 3 Zrotation Xrotation Yrotation
        JOINT head
        {
          OFFSET -0.24384 7.07133 1.2192
          CHANNELS 3 Zrotation Xrotation Yrotation
          JOINT leftEye
          {
            OFFSET 4.14528 8.04674 8.04672
            CHANNELS 3 Zrotation Xrotation Yrotation
            End Site
            {
              OFFSET 1 0 0
            }
          }
          JOINT rightEye
          {
            OFFSET -3.6576 8.04674 8.04672
            CHANNELS 3 Zrotation Xrotation Yrotation
            End Site
            {
              OFFSET 1 0 0
            }
          }
        }
      }
      JOINT rCollar
      {
        OFFSET -2.68224 19.2634 -4.8768
        CHANNELS 3 Zrotation Xrotation Yrotation
        JOINT rShldr
        {
          OFFSET -8.77824 -1.95073 1.46304
          CHANNELS 3 Zrotation Xrotation Yrotation
          JOINT rForeArm
          {
            OFFSET -28.1742 -1.7115 0.48768
            CHANNELS 3 Zrotation Xrotation Yrotation
            JOINT rHand
            {
              OFFSET -22.5879 0.773209 7.07136
              CHANNELS 3 Zrotation Xrotation Yrotation
              JOINT rThumb1
              {
                OFFSET -1.2192 -0.487915 3.41376
                CHANNELS 3 Zrotation Xrotation Yrotation
                JOINT rThumb2
                {
                  OFFSET -3.37035 -0.52449 3.41376
                  CHANNELS 3 Zrotation Xrotation Yrotation
                  End Site
                  {
                    OFFSET -1.78271 -1.18214 1.43049
                  }
                }
              }
              JOINT rIndex1
              {
                OFFSET -7.75947 0.938293 5.60832
                CHANNELS 3 Zrotation Xrotation Yrotation
                JOINT rIndex2
                {
                  OFFSET -2.54057 -0.884171 1.56538
                  CHANNELS 3 Zrotation Xrotation Yrotation
                  End Site
                  {
                    OFFSET -1.62519 -0.234802 1.16502
                  }
                }
              }
              JOINT rMid1
              {
                OFFSET -8.24714 1.18213 3.41376
                CHANNELS 3 Zrotation Xrotation Yrotation
                JOINT rMid2
                {
                  OFFSET -3.10165 -0.590103 1.0647
                  CHANNELS 3 Zrotation Xrotation Yrotation
                  End Site
                  {
                    OFFSET -2.48547 -0.328903 0.83742
                  }
                }
              }
              JOINT rRing1
              {
                OFFSET -8.82822 0.546677 1.51678
                CHANNELS 3 Zrotation Xrotation Yrotation
                JOINT rRing2
                {
                  OFFSET -2.60934 -0.819778 -0.0198488
                  CHANNELS 3 Zrotation Xrotation Yrotation
                  End Site
                  {
                    OFFSET -2.33842 -0.294052 0.168128
                  }
                }
              }
              JOINT rPinky1
              {
                OFFSET -8.27202 -0.0477905 -0.4584
                CHANNELS 3 Zrotation Xrotation Yrotation
                JOINT rPinky2
                {
                  OFFSET -1.82734 -0.647385 -0.700984
                  CHANNELS 3 Zrotation Xrotation Yrotation
                  End Site
                  {
                    OFFSET -1.69225 -0.51767 -0.607171
                  }
                }
              }
            }
          }
        }
      }
      JOINT lCollar
      {
        OFFSET 2.68224 19.2634 -4.8768
        CHANNELS 3 Zrotation Xrotation Yrotation
        JOINT lShldr
        {
          OFFSET 8.77824 -1.95073 1.46304
          CHANNELS 3 Zrotation Xrotation Yrotation
          JOINT lForeArm
          {
            OFFSET 28.1742 -1.7115 0.48768
            CHANNELS 3 Zrotation Xrotation Yrotation
            JOINT lHand
            {
              OFFSET 22.5879 0.773209 7.07136
              CHANNELS 3 Zrotation Xrotation Yrotation
              JOINT lThumb1
              {
                OFFSET 1.2192 -0.487915 3.41376
                CHANNELS 3 Zrotation Xrotation Yrotation
                JOINT lThumb2
                {
                  OFFSET 3.37035 -0.52449 3.41376
                  CHANNELS 3 Zrotation Xrotation Yrotation
                  End Site
                  {
                    OFFSET 1.78271 -1.18214 1.43049
                  }
                }
              }
              JOINT lIndex1
              {
                OFFSET 7.75947 0.938293 5.60832
                CHANNELS 3 Zrotation Xrotation Yrotation
                JOINT lIndex2
                {
                  OFFSET 2.54057 -0.884171 1.56538
                  CHANNELS 3 Zrotation Xrotation Yrotation
                  End Site
                  {
                    OFFSET 1.62519 -0.234802 1.16502
                  }
                }
              }
              JOINT lMid1
              {
                OFFSET 8.24714 1.18213 3.41376
                CHANNELS 3 Zrotation Xrotation Yrotation
                JOINT lMid2
                {
                  OFFSET 3.10165 -0.590103 1.0647
                  CHANNELS 3 Zrotation Xrotation Yrotation
                  End Site
                  {
                    OFFSET 2.48547 -0.328903 0.83742
                  }
                }
              }
              JOINT lRing1
              {
                OFFSET 8.82822 0.546677 1.51678
                CHANNELS 3 Zrotation Xrotation Yrotation
                JOINT lRing2
                {
                  OFFSET 2.60934 -0.819778 -0.0198488
                  CHANNELS 3 Zrotation Xrotation Yrotation
                  End Site
                  {
                    OFFSET 2.33842 -0.294052 0.168128
                  }
                }
              }
              JOINT lPinky1
              {
                OFFSET 8.27202 -0.0477905 -0.4584
                CHANNELS 3 Zrotation Xrotation Yrotation
                JOINT lPinky2
                {
                  OFFSET 1.82734 -0.647385 -0.700984
                  CHANNELS 3 Zrotation Xrotation Yrotation
                  End Site
                  {
                    OFFSET 1.69225 -0.51767 -0.607171
                  }
                }
              }
            }
          }
        }
      }
    }
  }
  JOINT rButtock
  {
    OFFSET -8.77824 4.35084 1.2192
    CHANNELS 3 Zrotation Xrotation Yrotation
    JOINT rThigh
    {
      OFFSET 0 -1.70687 -2.19456
      CHANNELS 3 Zrotation Xrotation Yrotation
      JOINT rShin
      {
        OFFSET 0 -36.8199 0.73152
        CHANNELS 3 Zrotation Xrotation Yrotation
        JOINT rFoot
        {
          OFFSET 0.73152 -45.1104 -5.12064
          CHANNELS 3 Zrotation Xrotation Yrotation
          End Site
          {
            OFFSET -1.1221 -3.69964 12.103
          }
        }
      }
    }
  }
  JOINT lButtock
  {
    OFFSET 8.77824 4.35084 1.2192
    CHANNELS 3 Zrotation Xrotation Yrotation
    JOINT lThigh
    {
      OFFSET 0 -1.70687 -2.19456
      CHANNELS 3 Zrotation Xrotation Yrotation
      JOINT lShin
      {
        OFFSET 0 -36.8199 0.73152
        CHANNELS 3 Zrotation Xrotation Yrotation
        JOINT lFoot
        {
          OFFSET -0.73152 -45.1104 -5.12064
          CHANNELS 3 Zrotation Xrotation Yrotation
          End Site
          {
            OFFSET 1.1221 -3.69964 12.103
          }
        }
      }
    }
  }
}
MOTION
Frames:	4
Frame Time:	0.03333
106.94539999999999 1.6851999999999998 44.2676 78.750869 -19.34611 -177.038303 69.746154 15.192224 -30.284847 169.849267 14.011239 163.482346 104.300163 3.673275 -28.308745 85.694573 -31.415716 -90.693789 -101.866254 0.228757 0.281818 16.051664 -3.381073 -23.644715 60.461804 -26.366574 105.964344 8.951343 -58.793299 -116.327062 -174.636998 -22.84034 -66.287881 37.101341 -30.363817 80.562266 -162.9826 -85.5124 31.748783 104.104247 54.40369 77.291773 21.567277 -54.506822 -173.225378 37.061986 65.449813 -170.807207 -110.806568 -62.96615 111.161184 40.935761 60.426634 42.351917 74.127045 5.485486 -122.621898 31.838657 -31.328297 -172.979369 44.699437 -64.828154 -61.289598 -96.23927 -60.736804 104.084504 149.451045 7.096287 -32.893955 -92.317427 -8.053062 95.116573 -74.319537 -57.831383 91.906803 -173.534954 -42.041579 107.504326 165.137773 16.819227 -29.506989 -114.386329 -5.745199 113.541334 3.892584 47.238848 99.397859 91.225425 42.409789 118.795053 -149.760015 -25.38772 132.033231 153.715045 -48.132541 -63.762831 -59.948742 12.288836 -38.629933 84.654512 45.145746 16.548191 -162.890946 -34.942403 30.297653 109.208003 79.363372 51.496823 90.477853 3.746857 153.380407 76.985268 -33.880688 -32.406957 -94.011439 64.892891 3.201338 -120.117317 2.337344 84.201549 -0.921311 26.657767 83.784362 94.752227 -62.287216 0.0 179.783295 47.477681 94.087733 157.859345 28.935684 16.84094
109.12219999999999 1.6829 45.1118 79.315792 -20.131509 -176.876191 70.76903 12.860624 -26.906434 168.686843 12.667218 166.430414 101.532102 13.148021 -90.172394 97.702354 28.422398 -88.858066 -103.319946 0.558889 0.706657 15.132037 -3.415136 -25.299921 118.575818 1.803824 103.53878 116.246642 -12.035207 -84.393445 136.565224 0.373796 -16.039852 10.703066 51.597861 44.896482 139.872558 -75.428353 -23.856595 115.102456 -60.734314 -152.574419 132.834018 67.738206 -7.79626 14.631204 -68.525018 -169.587722 -109.842763 -62.213009 111.906242 -68.787525 11.15148 141.063532 90.858868 -4.205073 -116.494942 23.18713 23.182216 179.443845 5.751309 -61.000738 -102.320955 -161.095841 -51.994723 62.705167 123.137071 -26.597707 -28.263974 -137.075064 -35.726165 115.622041 -134.41828 21.748113 5.187038 168.807042 10.538846 111.659966 -19.85617 -28.833742 -61.567858 -99.830373 -26.362505 133.045658 -42.95111 52.173063 126.069549 -162.79787 -1.957879 81.961364 -161.790013 -28.251944 124.850307 72.912461 -26.919319 -98.781841 -74.80088 -8.047532 -30.944938 -94.31398 -30.292619 -166.293761 -43.255935 20.45746 137.574084 106.485176 -31.823668 -48.784989 141.493623 -49.55295 114.217562 147.216419 13.283823 82.475472 91.820159 -20.727901 -167.695044 -122.834108 -14.675545 97.115871 -94.879925 -15.556461 -46.65082 -169.780596 -9.791076 76.017154 153.171322 -44.282322 -66.16705 -83.869637 18.949545 -70.032067
111.3197 1.6657000000000002 45.9597 78.610763 -20.445875 -175.884345 65.781249 9.896187 79.090473 173.341818 -10.342497 -90.778641 121.264845 8.368038 86.129341 -83.016012 -28.570993 113.820186 -103.058802 0.835717 1.051736 15.853741 -3.725817 -26.296239 61.348454 -25.70316 105.017759 -51.303075 4.29084 -155.710739 -16.055846 -80.112121 94.763209 39.010565 -32.337122 82.456951 79.730971 62.857732 -3.975707 134.803456 41.729862 -125.999516 7.596777 -38.389171 171.312353 54.97574 79.489428 160.733991 39.080746 47.707445 56.026841 145.32517 -38.307226 -163.407187 -108.912041 33.315243 -56.742596 -168.546219 -26.150624 -0.311485 -23.269947 -39.282126 -134.065986 155.609374 -12.570785 41.584201 -49.855731 -22.743398 -132.801706 -84.997817 26.912179 -95.775518 -10.034868 -73.532095 142.342639 -136.437919 -78.456499 135.181014 74.747171 -22.838366 -21.214741 -137.984023 -10.412715 110.161582 14.827043 42.769428 93.686779 -164.686137 -12.675632 96.148559 -150.95826 -24.693769 131.94883 146.268074 -48.380319 -68.420483 -82.456477 -20.509505 -28.094096 -110.508604 19.667397 -143.909782 -163.153071 -34.77201 30.977582 -174.670315 23.930618 2.366637 -40.126214 -74.749592 -116.008687 -141.061604 11.63834 -8.368723 89.380838 24.360535 -161.864497 -124.070893 -2.522794 97.557638 -0.515999 44.944643 98.805158 66.022508 -78.337518 -0.0 170.691678 43.276219 77.52754 95.620584 -1.114217 46.793744
113.549 1.646 46.833999999999996 77.147856 -20.317234 -174.59951 65.993507 11.548489 -19.408774 169.297313 10.335389 172.394979 118.574508 17.584859 142.406021 -92.526345 25.268575 112.755658 -101.39954 1.072492 1.3103 17.51763 -4.133981 -26.367663 -119.877169 -0.374564 56.203613 76.427382 9.822142 152.550003 -43.849786 80.411292 161.138135 40.693236 -33.525724 83.912087 45.576735 71.091964 28.810718 71.063182 25.686224 -101.86025 -1.408059 52.497608 137.137501 -1.245137 -34.004 126.118894 47.157554 45.349902 49.130015 -38.41316 72.780723 -50.288597 87.87292 -1.673335 -116.070393 27.836567 -14.129929 -176.773656 108.178089 5.044467 15.953757 -178.881632 31.475283 73.755562 149.259707 8.688707 -34.41963 -179.663605 0.150993 76.76525 32.724534 9.793518 -131.85335 24.411232 29.944277 -115.786626 -13.651013 -31.446187 -58.385372 -88.293158 -24.017442 145.116439 -174.083932 -9.664617 144.906039 -23.020424 76.860565 -140.487215 171.359248 -31.771289 107.568351 -175.375428 -3.93322 -50.359551 -89.967255 -34.650555 -26.215282 158.558429 37.162087 -67.550116 121.673386 74.552424 9.963122 -128.085332 -2.842746 -80.979771 91.474245 1.995939 153.418347 77.349923 -32.315321 68.884258 90.873414 -3.414466 11.617313 -10.416156 -24.732281 117.846477 -95.175481 -17.179988 -46.999273 -171.908767 -10.552227 180.0 -141.542563 -5.003386 -92.261537 70.034107 -27.472275 78.154465
